# xmcd
#
# Track frame offsets: 
#        150
#        14665
#        31512
#        54179
#        86934
#        119657
#        145234
#        168792
#        184349
#        206376
#        229220
#        255742
#        280049
#        306201
#
# Disc length: 4473 seconds
#
# Revision: 3
# Processed by: cddbd v1.5.2PL0 Copyright (c) Steve Scherf et al.
# Submitted via: ExactAudioCopy v0.99pb5
#
DISCID=bf11770e
DTITLE=Los Van Van - Havana Sí  - CD1
DYEAR=2009
DGENRE=Salsa
TTITLE0=Chirrín chirrán
TTITLE1=Dale dos
TTITLE2=Qué palo es ese
TTITLE3=El buena gente
TTITLE4=Anda, ven y muévete
TTITLE5=Será que se acabó
TTITLE6=La Habana sí
TTITLE7=Recaditos no
TTITLE8=La titimanía
TTITLE9=Hoy se cumplen seis semanas
TTITLE10=El negro no tiene ná
TTITLE11=Disco azúcar
TTITLE12=Aquí el que baila gana
TTITLE13=Qué sorpresa!
EXTD=
EXTT0=
EXTT1=
EXTT2=
EXTT3=
EXTT4=
EXTT5=
EXTT6=
EXTT7=
EXTT8=
EXTT9=
EXTT10=
EXTT11=
EXTT12=
EXTT13=
PLAYORDER=
